# xmcd
#
# Track frame offsets:
#	150
#	14092
#	23470
#	65292
#	104770
#	147845
#	189475
#
# Disc length: 2685 seconds
#
# Revision: 1
# Processed by: cddbd v1.5.1PL0 Copyright (c) Steve Scherf et al.
# Submitted via: CDex 1.50Beta5
#
DISCID=5b0a7b07
DTITLE=Various Artist - 爆れつハンター?ザ・マンスリー・コレクション 1st Season
DYEAR=1900
DGENRE=Anime
TTITLE0=あかほりさとる大先生の華麗なる野望・発動編
TTITLE1=FAI-FAI-TU! <Short Version>
TTITLE2=第ゼロ話「鏡の間の決断」
TTITLE3=第1話「新春初えっちを捜して」
TTITLE4=第2話「ハラホロ・ホレホレ・バレンタイン」
TTITLE5=第3話「愛と涙のひなまつり」
TTITLE6=あかほりさとる大先生の華麗なる野望・疾風編」
EXTD=
EXTT0=
EXTT1=
EXTT2=
EXTT3=
EXTT4=
EXTT5=
EXTT6=
PLAYORDER=
